<?xml version="1.0" encoding="UTF-8"?>
<!-- Creator: CorelDRAW 2021 (64 Bit) -->
<svg xmlns="http://www.w3.org/2000/svg" xmlns:xlink="http://www.w3.org/1999/xlink" xmlns:xodm="http://www.corel.com/coreldraw/odm/2003" xml:space="preserve" width="238.426mm" height="117.841mm" version="1.1" style="shape-rendering:geometricPrecision; text-rendering:geometricPrecision; image-rendering:optimizeQuality; fill-rule:evenodd; clip-rule:evenodd" viewBox="0 0 18348.41 9068.64">
 <defs>
  <style type="text/css">
   <![CDATA[
    .fil2 {fill:#0041A5}
    .fil6 {fill:#5A9B5A}
    .fil5 {fill:#6EAA3C}
    .fil4 {fill:#8CAA5A}
    .fil3 {fill:#AAC832}
    .fil1 {fill:#0041A5;fill-rule:nonzero}
    .fil0 {fill:#6EAA3C;fill-rule:nonzero}
   ]]>
  </style>
 </defs>
 <g id="Camada_x0020_1">
  <metadata id="CorelCorpID_0Corel-Layer"></metadata>
  <g id="_2096558264144">
   <path class="fil0" d="M17376.59 8603.5c-343.52,0 -523.64,-142.42 -523.64,-611.57 0,-377.03 104.75,-615.81 523.64,-615.81 423.05,0 519.41,238.77 519.41,615.81 0,469.15 -171.74,611.57 -519.41,611.57zm0 -1679.74c-565.51,0 -976.02,280.63 -976.02,1068.17 0,573.86 217.8,1063.94 976.02,1063.94 766.56,0 971.82,-490.08 971.82,-1063.94 0,-787.54 -402.16,-1068.17 -971.82,-1068.17zm-2067.13 1692.28c-397.93,-4.19 -544.53,-238.77 -544.53,-624.11 0,-414.7 142.41,-624.15 544.53,-624.15 129.87,0 280.68,25.13 356.05,58.64l0 1151.95c-87.96,25.13 -230.38,37.67 -356.05,37.67zm0 439.83c326.73,0 707.92,-125.64 808.47,-196.87l0 -2911.74 -452.42 75.39 0 955.56c-108.89,-29.32 -276.48,-54.45 -356.05,-54.45 -569.7,0 -988.56,280.63 -988.56,1068.17 0,573.86 226.19,1063.94 988.56,1063.94zm-1715.22 -456.57c-83.82,16.74 -230.43,29.32 -339.32,29.32 -221.99,0 -494.28,-37.71 -494.28,-247.16 0,-226.18 263.89,-247.11 490.08,-247.11 125.68,0 251.36,16.74 343.52,29.32l0 435.64zm-372.84 -1235.72c356.05,-16.78 368.64,226.19 376.99,381.19 -125.63,-29.32 -263.9,-46.1 -406.31,-46.1 -418.9,0 -888.05,138.27 -888.05,682.8 0,515.25 439.83,682.8 875.51,682.8 297.41,0 624.1,-71.18 867.07,-175.93l0 -1156.14c0,-527.8 -272.29,-808.43 -804.23,-808.43 -180.12,0 -552.96,79.57 -737.24,154.95l0 452.41c142.42,-50.25 473.31,-159.15 716.27,-167.54zm-1627.26 66.34c129.87,-54.49 263.9,-71.22 406.31,-71.22 62.84,0 150.81,8.39 280.68,25.13l0 -422.4c-134.07,-16.74 -247.16,-16.74 -330.94,-16.74 -92.16,0 -460.76,8.4 -808.47,175.94l0 1918.51 452.41 0 0 -1609.21zm-1342.43 0c129.87,-54.49 263.9,-71.22 406.31,-71.22 62.84,0 150.81,8.39 280.68,25.13l0 -422.4c-134.07,-16.74 -247.16,-16.74 -330.94,-16.74 -92.16,0 -460.76,8.4 -808.47,175.94l0 1918.51 452.41 0 0 -1609.21zm-1681.71 -53.79c330.93,0 460.76,159.2 502.66,385.38l-984.4 0c37.72,-226.18 150.8,-385.38 481.74,-385.38zm963.43 795.89c8.39,-79.58 8.39,-129.83 8.39,-180.09 0,-758.22 -406.31,-1068.17 -971.81,-1068.17 -565.51,0 -976.02,318.35 -976.02,1068.17 0,557.12 234.58,1059.78 992.75,1059.78 247.16,0 464.96,-37.71 724.7,-129.87l0 -427.29c-251.36,75.43 -498.47,125.68 -682.8,125.68 -276.48,0 -485.93,-108.9 -548.77,-448.22l1453.55 0zm-3034.71 427.29c-619.95,0 -888.05,-339.32 -888.05,-1013.72 0,-691.15 272.29,-1026.27 888.05,-1026.27 251.31,4.19 519.4,50.25 846.14,180.12l0 -473.34c-289.03,-113.1 -582.25,-180.12 -846.14,-175.93 -791.69,0 -1353,439.83 -1353,1495.42 0,745.63 289.03,1482.87 1353,1482.87 268.09,4.19 557.12,-67.04 846.14,-175.93l0 -473.34c-326.74,125.68 -594.84,175.93 -846.14,180.12z"></path>
   <path class="fil1" d="M4837.95 9039.13l0 -2094.45 -347.71 0 0 2094.45 347.71 0zm-2016.83 -1696.47c62.83,-29.33 289.02,-88.02 448.22,-88.02 477.49,0 603.17,289.07 603.17,737.29l0 1047.2 347.67 0 0 -1047.2c0,-787.54 -385.38,-1068.17 -950.84,-1068.17 -96.36,0 -469.15,33.51 -795.89,192.67l0 1922.7 347.67 0 0 -1696.47zm-1711.07 1357.2c-552.92,0 -753.98,-268.09 -753.98,-862.92l0 -1730.04 -356.06 0 0 1730.04c0,657.62 242.92,1218.94 1110.04,1218.94 867.11,0 1105.84,-561.31 1105.84,-1218.94l0 -1730.04 -356.02 0 0 1730.04c0,552.92 -188.51,862.92 -749.83,862.92zm3554.07 -2583.57c119,0 215.44,96.45 215.44,215.44 0,118.99 -96.44,215.43 -215.44,215.43 -118.99,0 -215.43,-96.44 -215.43,-215.43 0,-118.99 96.44,-215.44 215.43,-215.44z"></path>
   <path class="fil2" d="M10091.36 5008.23c-294.72,-803.06 -372.55,-1552.65 -210.6,-2300.34 922.91,-398.71 1919.67,-658.49 2964.01,-754.03 311.17,719 396.16,1423.9 275.06,2159.74 -234.6,-55.01 -479.15,-84.21 -730.52,-84.21 -902.92,0 -1718.05,375.55 -2297.94,978.85z"></path>
   <path class="fil3" d="M10288.45 1614.99c18.55,-35.15 37.58,-70.32 57.21,-105.55 289.13,-519.13 678.09,-1020.69 1139.56,-1509.43 461.47,488.74 850.4,990.31 1139.53,1509.43 489.84,879.54 642.32,1724.92 493.11,2615.95 -1108.71,-632.68 -2072.55,-1490.1 -2829.41,-2510.4z"></path>
   <path class="fil4" d="M12844.78 1953.86l0.27 0.63c9.03,20.86 17.85,41.75 26.5,62.58l3.9 9.48 10.84 26.5 2.4 6c12.43,30.88 24.49,61.73 36.11,92.56l1.92 5.16 10.3 27.76 2.61 7.11 9.51 26.38 4.45 12.52 7.62 21.63 7.23 21.1 4.32 12.54 1.41 4.2 11.14 33.55 0.93 2.86 1.8 5.67 10.08 31.48 3.63 11.61 7.14 23.11 5.91 19.45 5.73 19.39 4.45 15.13 6.33 22.15 4.75 16.75 9.18 33.5 0.12 0.51 4.29 16.15 6.16 23.5 3.63 14.22 5.85 23.35 3.27 13.33 8.29 34.75 0.12 0.54 9.18 40.43 0.18 0.72 8.31 38.66 0.99 4.8 6.57 32.18 2.4 12.21 5.07 26.35 1.98 10.62 5.76 31.97 1.17 6.54 6.43 37.72 0.15 1.05 5.95 37.66 1.52 10.33 4.06 27.7 1.56 10.99 4.26 31.78 0.69 5.22 4.39 35.65 0.48 3.96c3.06,26.08 5.83,52.19 8.31,78.3l0.54 5.88 3.19 35.84 0.18 2.28c3.36,40.34 6,80.7 8.01,121.1l0 0.12c1.32,26.59 2.32,53.18 3.03,79.8l0.09 3.62c1.05,40.19 1.47,80.4 1.2,120.68l0 0.72 -0.48 38.84 -0.09 4.08 -0.75 33.41 -0.24 8.73 -1.17 33.76 -0.18 5.04 -1.74 38.87 -0.06 0.95 -2.29 40.4 -0.15 2.4 -2.58 38.5 -0.18 2.49 -2.91 37.49 -0.3 3.78c-3.33,40.04 -7.3,80.17 -11.91,120.35l-0.72 6.09c-2.94,25.26 -6.13,50.57 -9.54,75.89l-0.72 5.35 -5.37 37.84 -0.24 1.8 -0.39 2.7 -5.85 38.3 -0.48 3 -4.47 27.6 -37.22 -8.49c-821.4,-473.59 -1562.49,-1070.86 -2197.76,-1766.43 628.7,-192.44 1284.37,-323.02 1959.98,-384.82z"></path>
   <path class="fil5" d="M11485.22 6454.49c-608.64,-0.87 -1055.97,-588.57 -1337.49,-1298.42 -343.1,-865.16 -440.25,-1665.71 -263.48,-2464.51 284.49,1388.06 1448.95,2455.2 2884.92,2593.38 -283.32,650.7 -712.58,1168.74 -1283.96,1169.55z"></path>
   <path class="fil6" d="M9887.19 2705.13c140.45,670.77 486.59,1265.91 969.36,1716.48 -284.24,156.28 -542.14,354.56 -765.19,586.62 -294.72,-803.06 -372.55,-1552.65 -210.6,-2300.34l6.43 -2.76z"></path>
  </g>
 </g>
</svg>
